<mxfile host="Electron" modified="2024-02-24T14:37:18.604Z" agent="Mozilla/5.0 (Windows NT 10.0; Win64; x64) AppleWebKit/537.36 (KHTML, like Gecko) draw.io/23.1.5 Chrome/120.0.6099.109 Electron/28.1.0 Safari/537.36" etag="RmeMIrSXVAQKZkK4-DI1" version="23.1.5" type="device">
  <diagram id="C5RBs43oDa-KdzZeNtuy" name="Page-1">
    <mxGraphModel dx="2198" dy="2001" grid="1" gridSize="10" guides="1" tooltips="1" connect="1" arrows="1" fold="1" page="1" pageScale="1" pageWidth="827" pageHeight="1169" math="0" shadow="0">
      <root>
        <mxCell id="WIyWlLk6GJQsqaUBKTNV-0" />
        <mxCell id="WIyWlLk6GJQsqaUBKTNV-1" parent="WIyWlLk6GJQsqaUBKTNV-0" />
        <mxCell id="28Vv1xQ9xIwoGJRTM6Ub-3" style="edgeStyle=orthogonalEdgeStyle;rounded=0;orthogonalLoop=1;jettySize=auto;html=1;exitX=1;exitY=0.5;exitDx=0;exitDy=0;entryX=0;entryY=0.5;entryDx=0;entryDy=0;" parent="WIyWlLk6GJQsqaUBKTNV-1" source="WIyWlLk6GJQsqaUBKTNV-3" target="WIyWlLk6GJQsqaUBKTNV-6" edge="1">
          <mxGeometry relative="1" as="geometry" />
        </mxCell>
        <mxCell id="WIyWlLk6GJQsqaUBKTNV-3" value="RUN" style="rounded=1;whiteSpace=wrap;html=1;fontSize=12;glass=0;strokeWidth=1;shadow=0;" parent="WIyWlLk6GJQsqaUBKTNV-1" vertex="1">
          <mxGeometry x="-380" y="190" width="120" height="40" as="geometry" />
        </mxCell>
        <mxCell id="28Vv1xQ9xIwoGJRTM6Ub-4" style="edgeStyle=orthogonalEdgeStyle;rounded=0;orthogonalLoop=1;jettySize=auto;html=1;exitX=1;exitY=0.5;exitDx=0;exitDy=0;entryX=0;entryY=0.5;entryDx=0;entryDy=0;" parent="WIyWlLk6GJQsqaUBKTNV-1" source="WIyWlLk6GJQsqaUBKTNV-6" target="HIVxTFkzLo3o_JO4Jnfv-33" edge="1">
          <mxGeometry relative="1" as="geometry">
            <mxPoint x="-70" y="210" as="targetPoint" />
          </mxGeometry>
        </mxCell>
        <mxCell id="28Vv1xQ9xIwoGJRTM6Ub-6" value="YES" style="edgeLabel;html=1;align=center;verticalAlign=middle;resizable=0;points=[];" parent="28Vv1xQ9xIwoGJRTM6Ub-4" vertex="1" connectable="0">
          <mxGeometry x="-0.1667" y="1" relative="1" as="geometry">
            <mxPoint x="-48" y="-9" as="offset" />
          </mxGeometry>
        </mxCell>
        <mxCell id="HIVxTFkzLo3o_JO4Jnfv-34" style="edgeStyle=orthogonalEdgeStyle;rounded=0;orthogonalLoop=1;jettySize=auto;html=1;exitX=0.5;exitY=1;exitDx=0;exitDy=0;entryX=0;entryY=0.5;entryDx=0;entryDy=0;" edge="1" parent="WIyWlLk6GJQsqaUBKTNV-1" source="WIyWlLk6GJQsqaUBKTNV-6" target="HIVxTFkzLo3o_JO4Jnfv-1">
          <mxGeometry relative="1" as="geometry" />
        </mxCell>
        <mxCell id="HIVxTFkzLo3o_JO4Jnfv-35" value="NO" style="edgeLabel;html=1;align=center;verticalAlign=middle;resizable=0;points=[];" vertex="1" connectable="0" parent="HIVxTFkzLo3o_JO4Jnfv-34">
          <mxGeometry x="-0.9198" y="1" relative="1" as="geometry">
            <mxPoint x="11" y="-23" as="offset" />
          </mxGeometry>
        </mxCell>
        <mxCell id="HIVxTFkzLo3o_JO4Jnfv-42" style="edgeStyle=orthogonalEdgeStyle;rounded=0;orthogonalLoop=1;jettySize=auto;html=1;exitX=0.5;exitY=1;exitDx=0;exitDy=0;entryX=0;entryY=0.5;entryDx=0;entryDy=0;" edge="1" parent="WIyWlLk6GJQsqaUBKTNV-1" source="WIyWlLk6GJQsqaUBKTNV-6" target="HIVxTFkzLo3o_JO4Jnfv-0">
          <mxGeometry relative="1" as="geometry">
            <Array as="points">
              <mxPoint x="-120" y="380" />
            </Array>
          </mxGeometry>
        </mxCell>
        <mxCell id="HIVxTFkzLo3o_JO4Jnfv-43" style="edgeStyle=orthogonalEdgeStyle;rounded=0;orthogonalLoop=1;jettySize=auto;html=1;exitX=0.5;exitY=1;exitDx=0;exitDy=0;entryX=0;entryY=0.5;entryDx=0;entryDy=0;" edge="1" parent="WIyWlLk6GJQsqaUBKTNV-1" source="WIyWlLk6GJQsqaUBKTNV-6" target="28Vv1xQ9xIwoGJRTM6Ub-0">
          <mxGeometry relative="1" as="geometry">
            <Array as="points">
              <mxPoint x="-120" y="320" />
              <mxPoint x="280" y="320" />
              <mxPoint x="280" y="210" />
            </Array>
          </mxGeometry>
        </mxCell>
        <mxCell id="WIyWlLk6GJQsqaUBKTNV-6" value="--config" style="rhombus;whiteSpace=wrap;html=1;shadow=0;fontFamily=Helvetica;fontSize=12;align=center;strokeWidth=1;spacing=6;spacingTop=-4;" parent="WIyWlLk6GJQsqaUBKTNV-1" vertex="1">
          <mxGeometry x="-170" y="170" width="100" height="80" as="geometry" />
        </mxCell>
        <mxCell id="28Vv1xQ9xIwoGJRTM6Ub-2" style="edgeStyle=orthogonalEdgeStyle;rounded=0;orthogonalLoop=1;jettySize=auto;html=1;exitX=1;exitY=0.5;exitDx=0;exitDy=0;entryX=0;entryY=0.5;entryDx=0;entryDy=0;" parent="WIyWlLk6GJQsqaUBKTNV-1" source="28Vv1xQ9xIwoGJRTM6Ub-0" target="HIVxTFkzLo3o_JO4Jnfv-5" edge="1">
          <mxGeometry relative="1" as="geometry">
            <mxPoint x="540" y="210" as="targetPoint" />
          </mxGeometry>
        </mxCell>
        <mxCell id="HIVxTFkzLo3o_JO4Jnfv-55" style="edgeStyle=orthogonalEdgeStyle;rounded=0;orthogonalLoop=1;jettySize=auto;html=1;exitX=0.5;exitY=1;exitDx=0;exitDy=0;entryX=0.5;entryY=0;entryDx=0;entryDy=0;" edge="1" parent="WIyWlLk6GJQsqaUBKTNV-1" source="28Vv1xQ9xIwoGJRTM6Ub-0" target="HIVxTFkzLo3o_JO4Jnfv-0">
          <mxGeometry relative="1" as="geometry" />
        </mxCell>
        <mxCell id="28Vv1xQ9xIwoGJRTM6Ub-0" value="--input" style="rhombus;whiteSpace=wrap;html=1;shadow=0;fontFamily=Helvetica;fontSize=12;align=center;strokeWidth=1;spacing=6;spacingTop=-4;" parent="WIyWlLk6GJQsqaUBKTNV-1" vertex="1">
          <mxGeometry x="330" y="170" width="100" height="80" as="geometry" />
        </mxCell>
        <mxCell id="HIVxTFkzLo3o_JO4Jnfv-9" style="edgeStyle=orthogonalEdgeStyle;rounded=0;orthogonalLoop=1;jettySize=auto;html=1;exitX=1;exitY=0.5;exitDx=0;exitDy=0;entryX=0;entryY=0.5;entryDx=0;entryDy=0;" edge="1" parent="WIyWlLk6GJQsqaUBKTNV-1" source="HIVxTFkzLo3o_JO4Jnfv-0" target="HIVxTFkzLo3o_JO4Jnfv-7">
          <mxGeometry relative="1" as="geometry" />
        </mxCell>
        <mxCell id="HIVxTFkzLo3o_JO4Jnfv-10" style="edgeStyle=orthogonalEdgeStyle;rounded=0;orthogonalLoop=1;jettySize=auto;html=1;exitX=1;exitY=0.5;exitDx=0;exitDy=0;entryX=0;entryY=0.5;entryDx=0;entryDy=0;" edge="1" parent="WIyWlLk6GJQsqaUBKTNV-1" source="HIVxTFkzLo3o_JO4Jnfv-0" target="HIVxTFkzLo3o_JO4Jnfv-8">
          <mxGeometry relative="1" as="geometry" />
        </mxCell>
        <mxCell id="HIVxTFkzLo3o_JO4Jnfv-0" value="--list" style="rhombus;whiteSpace=wrap;html=1;shadow=0;fontFamily=Helvetica;fontSize=12;align=center;strokeWidth=1;spacing=6;spacingTop=-4;" vertex="1" parent="WIyWlLk6GJQsqaUBKTNV-1">
          <mxGeometry x="330" y="340" width="100" height="80" as="geometry" />
        </mxCell>
        <mxCell id="HIVxTFkzLo3o_JO4Jnfv-30" style="edgeStyle=orthogonalEdgeStyle;rounded=0;orthogonalLoop=1;jettySize=auto;html=1;exitX=1;exitY=0.5;exitDx=0;exitDy=0;entryX=0;entryY=0.5;entryDx=0;entryDy=0;" edge="1" parent="WIyWlLk6GJQsqaUBKTNV-1" source="HIVxTFkzLo3o_JO4Jnfv-1" target="HIVxTFkzLo3o_JO4Jnfv-29">
          <mxGeometry relative="1" as="geometry" />
        </mxCell>
        <mxCell id="HIVxTFkzLo3o_JO4Jnfv-1" value="--list-config" style="rhombus;whiteSpace=wrap;html=1;shadow=0;fontFamily=Helvetica;fontSize=12;align=center;strokeWidth=1;spacing=6;spacingTop=-4;" vertex="1" parent="WIyWlLk6GJQsqaUBKTNV-1">
          <mxGeometry x="330" y="574" width="100" height="80" as="geometry" />
        </mxCell>
        <mxCell id="HIVxTFkzLo3o_JO4Jnfv-63" style="edgeStyle=orthogonalEdgeStyle;rounded=0;orthogonalLoop=1;jettySize=auto;html=1;exitX=1;exitY=0.5;exitDx=0;exitDy=0;entryX=0;entryY=0.5;entryDx=0;entryDy=0;" edge="1" parent="WIyWlLk6GJQsqaUBKTNV-1" source="HIVxTFkzLo3o_JO4Jnfv-5" target="HIVxTFkzLo3o_JO4Jnfv-58">
          <mxGeometry relative="1" as="geometry" />
        </mxCell>
        <mxCell id="HIVxTFkzLo3o_JO4Jnfv-5" value="input files" style="shape=document;whiteSpace=wrap;html=1;boundedLbl=1;" vertex="1" parent="WIyWlLk6GJQsqaUBKTNV-1">
          <mxGeometry x="910" y="170" width="120" height="80" as="geometry" />
        </mxCell>
        <mxCell id="HIVxTFkzLo3o_JO4Jnfv-15" style="edgeStyle=orthogonalEdgeStyle;rounded=0;orthogonalLoop=1;jettySize=auto;html=1;exitX=1;exitY=0.5;exitDx=0;exitDy=0;entryX=0;entryY=0.5;entryDx=0;entryDy=0;" edge="1" parent="WIyWlLk6GJQsqaUBKTNV-1" source="HIVxTFkzLo3o_JO4Jnfv-6" target="HIVxTFkzLo3o_JO4Jnfv-14">
          <mxGeometry relative="1" as="geometry" />
        </mxCell>
        <mxCell id="HIVxTFkzLo3o_JO4Jnfv-6" value="extract files input&lt;br&gt;from .csv" style="shape=process;whiteSpace=wrap;html=1;backgroundOutline=1;" vertex="1" parent="WIyWlLk6GJQsqaUBKTNV-1">
          <mxGeometry x="660" y="285" width="120" height="60" as="geometry" />
        </mxCell>
        <mxCell id="HIVxTFkzLo3o_JO4Jnfv-11" style="edgeStyle=orthogonalEdgeStyle;rounded=0;orthogonalLoop=1;jettySize=auto;html=1;exitX=1;exitY=0.5;exitDx=0;exitDy=0;entryX=0;entryY=0.5;entryDx=0;entryDy=0;" edge="1" parent="WIyWlLk6GJQsqaUBKTNV-1" source="HIVxTFkzLo3o_JO4Jnfv-7" target="HIVxTFkzLo3o_JO4Jnfv-6">
          <mxGeometry relative="1" as="geometry" />
        </mxCell>
        <mxCell id="HIVxTFkzLo3o_JO4Jnfv-7" value=".csv" style="shape=document;whiteSpace=wrap;html=1;boundedLbl=1;" vertex="1" parent="WIyWlLk6GJQsqaUBKTNV-1">
          <mxGeometry x="500" y="290" width="70" height="50" as="geometry" />
        </mxCell>
        <mxCell id="HIVxTFkzLo3o_JO4Jnfv-13" style="edgeStyle=orthogonalEdgeStyle;rounded=0;orthogonalLoop=1;jettySize=auto;html=1;exitX=1;exitY=0.5;exitDx=0;exitDy=0;entryX=0;entryY=0.5;entryDx=0;entryDy=0;" edge="1" parent="WIyWlLk6GJQsqaUBKTNV-1" source="HIVxTFkzLo3o_JO4Jnfv-8" target="HIVxTFkzLo3o_JO4Jnfv-12">
          <mxGeometry relative="1" as="geometry" />
        </mxCell>
        <mxCell id="HIVxTFkzLo3o_JO4Jnfv-8" value=".xlsx" style="shape=document;whiteSpace=wrap;html=1;boundedLbl=1;" vertex="1" parent="WIyWlLk6GJQsqaUBKTNV-1">
          <mxGeometry x="500" y="420" width="70" height="50" as="geometry" />
        </mxCell>
        <mxCell id="HIVxTFkzLo3o_JO4Jnfv-17" style="edgeStyle=orthogonalEdgeStyle;rounded=0;orthogonalLoop=1;jettySize=auto;html=1;exitX=1;exitY=0.5;exitDx=0;exitDy=0;entryX=0;entryY=0.5;entryDx=0;entryDy=0;" edge="1" parent="WIyWlLk6GJQsqaUBKTNV-1" source="HIVxTFkzLo3o_JO4Jnfv-12" target="HIVxTFkzLo3o_JO4Jnfv-14">
          <mxGeometry relative="1" as="geometry" />
        </mxCell>
        <mxCell id="HIVxTFkzLo3o_JO4Jnfv-12" value="extract files input&lt;br&gt;from .xlsx" style="shape=process;whiteSpace=wrap;html=1;backgroundOutline=1;" vertex="1" parent="WIyWlLk6GJQsqaUBKTNV-1">
          <mxGeometry x="660" y="415" width="120" height="60" as="geometry" />
        </mxCell>
        <mxCell id="HIVxTFkzLo3o_JO4Jnfv-14" value="input files" style="shape=document;whiteSpace=wrap;html=1;boundedLbl=1;" vertex="1" parent="WIyWlLk6GJQsqaUBKTNV-1">
          <mxGeometry x="910" y="340" width="120" height="80" as="geometry" />
        </mxCell>
        <mxCell id="HIVxTFkzLo3o_JO4Jnfv-18" style="edgeStyle=orthogonalEdgeStyle;rounded=0;orthogonalLoop=1;jettySize=auto;html=1;exitX=1;exitY=0.5;exitDx=0;exitDy=0;entryX=0;entryY=0.5;entryDx=0;entryDy=0;" edge="1" parent="WIyWlLk6GJQsqaUBKTNV-1" target="HIVxTFkzLo3o_JO4Jnfv-23" source="HIVxTFkzLo3o_JO4Jnfv-1">
          <mxGeometry relative="1" as="geometry">
            <mxPoint x="520" y="614" as="sourcePoint" />
          </mxGeometry>
        </mxCell>
        <mxCell id="HIVxTFkzLo3o_JO4Jnfv-19" style="edgeStyle=orthogonalEdgeStyle;rounded=0;orthogonalLoop=1;jettySize=auto;html=1;exitX=1;exitY=0.5;exitDx=0;exitDy=0;entryX=0;entryY=0.5;entryDx=0;entryDy=0;" edge="1" parent="WIyWlLk6GJQsqaUBKTNV-1" target="HIVxTFkzLo3o_JO4Jnfv-25" source="HIVxTFkzLo3o_JO4Jnfv-1">
          <mxGeometry relative="1" as="geometry">
            <mxPoint x="500" y="614" as="sourcePoint" />
          </mxGeometry>
        </mxCell>
        <mxCell id="HIVxTFkzLo3o_JO4Jnfv-20" style="edgeStyle=orthogonalEdgeStyle;rounded=0;orthogonalLoop=1;jettySize=auto;html=1;exitX=1;exitY=0.5;exitDx=0;exitDy=0;entryX=0;entryY=0.5;entryDx=0;entryDy=0;" edge="1" parent="WIyWlLk6GJQsqaUBKTNV-1" source="HIVxTFkzLo3o_JO4Jnfv-21" target="HIVxTFkzLo3o_JO4Jnfv-28">
          <mxGeometry relative="1" as="geometry" />
        </mxCell>
        <mxCell id="HIVxTFkzLo3o_JO4Jnfv-21" value="extract files input&lt;br&gt;from .csv" style="shape=process;whiteSpace=wrap;html=1;backgroundOutline=1;" vertex="1" parent="WIyWlLk6GJQsqaUBKTNV-1">
          <mxGeometry x="660" y="519" width="120" height="60" as="geometry" />
        </mxCell>
        <mxCell id="HIVxTFkzLo3o_JO4Jnfv-22" style="edgeStyle=orthogonalEdgeStyle;rounded=0;orthogonalLoop=1;jettySize=auto;html=1;exitX=1;exitY=0.5;exitDx=0;exitDy=0;entryX=0;entryY=0.5;entryDx=0;entryDy=0;" edge="1" parent="WIyWlLk6GJQsqaUBKTNV-1" source="HIVxTFkzLo3o_JO4Jnfv-23" target="HIVxTFkzLo3o_JO4Jnfv-21">
          <mxGeometry relative="1" as="geometry" />
        </mxCell>
        <mxCell id="HIVxTFkzLo3o_JO4Jnfv-23" value=".csv" style="shape=document;whiteSpace=wrap;html=1;boundedLbl=1;" vertex="1" parent="WIyWlLk6GJQsqaUBKTNV-1">
          <mxGeometry x="500" y="524" width="70" height="50" as="geometry" />
        </mxCell>
        <mxCell id="HIVxTFkzLo3o_JO4Jnfv-24" style="edgeStyle=orthogonalEdgeStyle;rounded=0;orthogonalLoop=1;jettySize=auto;html=1;exitX=1;exitY=0.5;exitDx=0;exitDy=0;entryX=0;entryY=0.5;entryDx=0;entryDy=0;" edge="1" parent="WIyWlLk6GJQsqaUBKTNV-1" source="HIVxTFkzLo3o_JO4Jnfv-25" target="HIVxTFkzLo3o_JO4Jnfv-27">
          <mxGeometry relative="1" as="geometry" />
        </mxCell>
        <mxCell id="HIVxTFkzLo3o_JO4Jnfv-25" value=".xlsx" style="shape=document;whiteSpace=wrap;html=1;boundedLbl=1;" vertex="1" parent="WIyWlLk6GJQsqaUBKTNV-1">
          <mxGeometry x="500" y="654" width="70" height="50" as="geometry" />
        </mxCell>
        <mxCell id="HIVxTFkzLo3o_JO4Jnfv-26" style="edgeStyle=orthogonalEdgeStyle;rounded=0;orthogonalLoop=1;jettySize=auto;html=1;exitX=1;exitY=0.5;exitDx=0;exitDy=0;entryX=0;entryY=0.5;entryDx=0;entryDy=0;" edge="1" parent="WIyWlLk6GJQsqaUBKTNV-1" source="HIVxTFkzLo3o_JO4Jnfv-27" target="HIVxTFkzLo3o_JO4Jnfv-28">
          <mxGeometry relative="1" as="geometry" />
        </mxCell>
        <mxCell id="HIVxTFkzLo3o_JO4Jnfv-27" value="extract files input&lt;br&gt;from .xlsx" style="shape=process;whiteSpace=wrap;html=1;backgroundOutline=1;" vertex="1" parent="WIyWlLk6GJQsqaUBKTNV-1">
          <mxGeometry x="660" y="649" width="120" height="60" as="geometry" />
        </mxCell>
        <mxCell id="HIVxTFkzLo3o_JO4Jnfv-62" style="edgeStyle=orthogonalEdgeStyle;rounded=0;orthogonalLoop=1;jettySize=auto;html=1;exitX=1;exitY=0.5;exitDx=0;exitDy=0;entryX=0;entryY=0.5;entryDx=0;entryDy=0;" edge="1" parent="WIyWlLk6GJQsqaUBKTNV-1" source="HIVxTFkzLo3o_JO4Jnfv-28" target="HIVxTFkzLo3o_JO4Jnfv-58">
          <mxGeometry relative="1" as="geometry" />
        </mxCell>
        <mxCell id="HIVxTFkzLo3o_JO4Jnfv-28" value="input files" style="shape=document;whiteSpace=wrap;html=1;boundedLbl=1;" vertex="1" parent="WIyWlLk6GJQsqaUBKTNV-1">
          <mxGeometry x="910" y="574" width="120" height="80" as="geometry" />
        </mxCell>
        <mxCell id="HIVxTFkzLo3o_JO4Jnfv-57" style="edgeStyle=orthogonalEdgeStyle;rounded=0;orthogonalLoop=1;jettySize=auto;html=1;exitX=1;exitY=0.5;exitDx=0;exitDy=0;entryX=0;entryY=0.5;entryDx=0;entryDy=0;" edge="1" parent="WIyWlLk6GJQsqaUBKTNV-1" source="HIVxTFkzLo3o_JO4Jnfv-29" target="HIVxTFkzLo3o_JO4Jnfv-56">
          <mxGeometry relative="1" as="geometry" />
        </mxCell>
        <mxCell id="HIVxTFkzLo3o_JO4Jnfv-29" value="sheet config" style="rounded=0;whiteSpace=wrap;html=1;" vertex="1" parent="WIyWlLk6GJQsqaUBKTNV-1">
          <mxGeometry x="500" y="810" width="90" height="50" as="geometry" />
        </mxCell>
        <mxCell id="HIVxTFkzLo3o_JO4Jnfv-40" style="edgeStyle=orthogonalEdgeStyle;rounded=0;orthogonalLoop=1;jettySize=auto;html=1;exitX=1;exitY=0.5;exitDx=0;exitDy=0;entryX=0;entryY=0.5;entryDx=0;entryDy=0;" edge="1" parent="WIyWlLk6GJQsqaUBKTNV-1" source="HIVxTFkzLo3o_JO4Jnfv-33" target="28Vv1xQ9xIwoGJRTM6Ub-0">
          <mxGeometry relative="1" as="geometry" />
        </mxCell>
        <mxCell id="HIVxTFkzLo3o_JO4Jnfv-33" value="NO &quot;input&quot;&lt;br&gt;NO &quot;list&quot;&lt;br&gt;NO &quot;list_config&quot;&lt;br&gt;NO &quot;config&quot;" style="shape=document;whiteSpace=wrap;html=1;boundedLbl=1;" vertex="1" parent="WIyWlLk6GJQsqaUBKTNV-1">
          <mxGeometry x="70" y="155" width="150" height="110" as="geometry" />
        </mxCell>
        <mxCell id="HIVxTFkzLo3o_JO4Jnfv-44" style="edgeStyle=orthogonalEdgeStyle;rounded=0;orthogonalLoop=1;jettySize=auto;html=1;exitX=1;exitY=0.5;exitDx=0;exitDy=0;entryX=0;entryY=0.5;entryDx=0;entryDy=0;" edge="1" parent="WIyWlLk6GJQsqaUBKTNV-1" target="HIVxTFkzLo3o_JO4Jnfv-49" source="WIyWlLk6GJQsqaUBKTNV-6">
          <mxGeometry relative="1" as="geometry">
            <mxPoint x="35" y="5" as="sourcePoint" />
            <Array as="points">
              <mxPoint x="-10" y="210" />
              <mxPoint x="-10" y="-60" />
            </Array>
          </mxGeometry>
        </mxCell>
        <mxCell id="HIVxTFkzLo3o_JO4Jnfv-45" style="edgeStyle=orthogonalEdgeStyle;rounded=0;orthogonalLoop=1;jettySize=auto;html=1;exitX=1;exitY=0.5;exitDx=0;exitDy=0;entryX=0;entryY=0.5;entryDx=0;entryDy=0;" edge="1" parent="WIyWlLk6GJQsqaUBKTNV-1" target="HIVxTFkzLo3o_JO4Jnfv-51" source="WIyWlLk6GJQsqaUBKTNV-6">
          <mxGeometry relative="1" as="geometry">
            <mxPoint x="-207.5" y="140" as="sourcePoint" />
            <mxPoint x="-32.5" as="targetPoint" />
            <Array as="points">
              <mxPoint x="-10" y="210" />
              <mxPoint x="-10" y="70" />
            </Array>
          </mxGeometry>
        </mxCell>
        <mxCell id="HIVxTFkzLo3o_JO4Jnfv-46" style="edgeStyle=orthogonalEdgeStyle;rounded=0;orthogonalLoop=1;jettySize=auto;html=1;exitX=1;exitY=0.5;exitDx=0;exitDy=0;entryX=0;entryY=0.5;entryDx=0;entryDy=0;" edge="1" parent="WIyWlLk6GJQsqaUBKTNV-1" source="HIVxTFkzLo3o_JO4Jnfv-47" target="HIVxTFkzLo3o_JO4Jnfv-54">
          <mxGeometry relative="1" as="geometry" />
        </mxCell>
        <mxCell id="HIVxTFkzLo3o_JO4Jnfv-47" value="extract files input&lt;br&gt;from .json" style="shape=process;whiteSpace=wrap;html=1;backgroundOutline=1;" vertex="1" parent="WIyWlLk6GJQsqaUBKTNV-1">
          <mxGeometry x="500" y="-90" width="120" height="60" as="geometry" />
        </mxCell>
        <mxCell id="HIVxTFkzLo3o_JO4Jnfv-48" style="edgeStyle=orthogonalEdgeStyle;rounded=0;orthogonalLoop=1;jettySize=auto;html=1;exitX=1;exitY=0.5;exitDx=0;exitDy=0;entryX=0;entryY=0.5;entryDx=0;entryDy=0;" edge="1" parent="WIyWlLk6GJQsqaUBKTNV-1" source="HIVxTFkzLo3o_JO4Jnfv-49" target="HIVxTFkzLo3o_JO4Jnfv-47">
          <mxGeometry relative="1" as="geometry" />
        </mxCell>
        <mxCell id="HIVxTFkzLo3o_JO4Jnfv-49" value=".json" style="shape=document;whiteSpace=wrap;html=1;boundedLbl=1;" vertex="1" parent="WIyWlLk6GJQsqaUBKTNV-1">
          <mxGeometry x="340" y="-85" width="70" height="50" as="geometry" />
        </mxCell>
        <mxCell id="HIVxTFkzLo3o_JO4Jnfv-50" style="edgeStyle=orthogonalEdgeStyle;rounded=0;orthogonalLoop=1;jettySize=auto;html=1;exitX=1;exitY=0.5;exitDx=0;exitDy=0;entryX=0;entryY=0.5;entryDx=0;entryDy=0;" edge="1" parent="WIyWlLk6GJQsqaUBKTNV-1" source="HIVxTFkzLo3o_JO4Jnfv-51" target="HIVxTFkzLo3o_JO4Jnfv-53">
          <mxGeometry relative="1" as="geometry" />
        </mxCell>
        <mxCell id="HIVxTFkzLo3o_JO4Jnfv-51" value=".xlsx" style="shape=document;whiteSpace=wrap;html=1;boundedLbl=1;" vertex="1" parent="WIyWlLk6GJQsqaUBKTNV-1">
          <mxGeometry x="340" y="45" width="70" height="50" as="geometry" />
        </mxCell>
        <mxCell id="HIVxTFkzLo3o_JO4Jnfv-52" style="edgeStyle=orthogonalEdgeStyle;rounded=0;orthogonalLoop=1;jettySize=auto;html=1;exitX=1;exitY=0.5;exitDx=0;exitDy=0;entryX=0;entryY=0.5;entryDx=0;entryDy=0;" edge="1" parent="WIyWlLk6GJQsqaUBKTNV-1" source="HIVxTFkzLo3o_JO4Jnfv-53" target="HIVxTFkzLo3o_JO4Jnfv-54">
          <mxGeometry relative="1" as="geometry" />
        </mxCell>
        <mxCell id="HIVxTFkzLo3o_JO4Jnfv-53" value="extract files input&lt;br&gt;from .xlsx" style="shape=process;whiteSpace=wrap;html=1;backgroundOutline=1;" vertex="1" parent="WIyWlLk6GJQsqaUBKTNV-1">
          <mxGeometry x="500" y="40" width="120" height="60" as="geometry" />
        </mxCell>
        <mxCell id="HIVxTFkzLo3o_JO4Jnfv-59" style="edgeStyle=orthogonalEdgeStyle;rounded=0;orthogonalLoop=1;jettySize=auto;html=1;exitX=1;exitY=0.5;exitDx=0;exitDy=0;entryX=0;entryY=0.5;entryDx=0;entryDy=0;" edge="1" parent="WIyWlLk6GJQsqaUBKTNV-1" source="HIVxTFkzLo3o_JO4Jnfv-54" target="HIVxTFkzLo3o_JO4Jnfv-58">
          <mxGeometry relative="1" as="geometry">
            <mxPoint x="1220" y="240" as="targetPoint" />
          </mxGeometry>
        </mxCell>
        <mxCell id="HIVxTFkzLo3o_JO4Jnfv-54" value="input files" style="shape=document;whiteSpace=wrap;html=1;boundedLbl=1;" vertex="1" parent="WIyWlLk6GJQsqaUBKTNV-1">
          <mxGeometry x="910" y="-35" width="120" height="80" as="geometry" />
        </mxCell>
        <mxCell id="HIVxTFkzLo3o_JO4Jnfv-56" value="NO &quot;input&quot;&lt;br&gt;NO &quot;list&quot;&lt;br&gt;NO &quot;list_config&quot;&lt;br&gt;NO &quot;config&quot;" style="shape=document;whiteSpace=wrap;html=1;boundedLbl=1;" vertex="1" parent="WIyWlLk6GJQsqaUBKTNV-1">
          <mxGeometry x="645" y="780" width="150" height="110" as="geometry" />
        </mxCell>
        <mxCell id="HIVxTFkzLo3o_JO4Jnfv-58" value="input files" style="shape=dataStorage;whiteSpace=wrap;html=1;fixedSize=1;" vertex="1" parent="WIyWlLk6GJQsqaUBKTNV-1">
          <mxGeometry x="1241" y="275" width="100" height="80" as="geometry" />
        </mxCell>
        <mxCell id="HIVxTFkzLo3o_JO4Jnfv-61" style="edgeStyle=orthogonalEdgeStyle;rounded=0;orthogonalLoop=1;jettySize=auto;html=1;exitX=1;exitY=0.5;exitDx=0;exitDy=0;entryX=0;entryY=0.5;entryDx=0;entryDy=0;" edge="1" parent="WIyWlLk6GJQsqaUBKTNV-1" source="HIVxTFkzLo3o_JO4Jnfv-14" target="HIVxTFkzLo3o_JO4Jnfv-58">
          <mxGeometry relative="1" as="geometry">
            <mxPoint x="1200" y="360" as="targetPoint" />
          </mxGeometry>
        </mxCell>
      </root>
    </mxGraphModel>
  </diagram>
</mxfile>
